<svg width="200" height="200" xmlns="http://www.w3.org/2000/svg" viewBox="0 0 200 200">

    <g mask="url(#pixels)">
        <g stroke-width="0" fill="black" mask="url(#pages)">
            <rect x="37.5" y="12.5" width="100" height="175" rx="20" ry="20" />
            <rect x="100" y="12.5" width="62.5" height="175" />
        </g>
        <rect x="100" y="100" width="100" height="100"/>
    </g>
    

    <defs>
        <mask id="pages">
            <rect x="0" y="0" width="200" height="200" fill="white" />
            <rect x="62.5" y="162.5" width="200" height="12.5" rx="6.25" ry="6.25" fill="black"/>
        </mask>
        <mask id="pixels">
            <rect x="0" y="0" width="200" height="200" fill="black" />
            <g fill="white">
                <rect x="37.5" y="12.5" width="6.25" height="6.25" />
                <rect x="43.75" y="12.5" width="6.25" height="6.25" />
                <rect x="50.0" y="12.5" width="6.25" height="6.25" />
                <rect x="56.25" y="12.5" width="6.25" height="6.25" />
                <rect x="62.5" y="12.5" width="6.25" height="6.25" />
                <rect x="68.75" y="12.5" width="6.25" height="6.25" />
                <rect x="75.0" y="12.5" width="6.25" height="6.25" />
                <rect x="81.25" y="12.5" width="6.25" height="6.25" />
                <rect x="87.5" y="12.5" width="6.25" height="6.25" />
                <rect x="93.75" y="12.5" width="6.25" height="6.25" />
                <rect x="100.0" y="12.5" width="6.25" height="6.25" />
                <rect x="106.25" y="12.5" width="6.25" height="6.25" />
                <rect x="112.5" y="12.5" width="6.25" height="6.25" />
                <rect x="118.75" y="12.5" width="6.25" height="6.25" />
                <rect x="125.0" y="12.5" width="6.25" height="6.25" />
                <rect x="131.25" y="12.5" width="6.25" height="6.25" />
                <rect x="137.5" y="12.5" width="6.25" height="6.25" />
                <rect x="143.75" y="12.5" width="6.25" height="6.25" />
                <rect x="150.0" y="12.5" width="6.25" height="6.25" />
                <rect x="156.25" y="12.5" width="6.25" height="6.25" />
                <rect x="37.5" y="18.75" width="6.25" height="6.25" />
                <rect x="43.75" y="18.75" width="6.25" height="6.25" />
                <rect x="50.0" y="18.75" width="6.25" height="6.25" />
                <rect x="56.25" y="18.75" width="6.25" height="6.25" />
                <rect x="62.5" y="18.75" width="6.25" height="6.25" />
                <rect x="68.75" y="18.75" width="6.25" height="6.25" />
                <rect x="75.0" y="18.75" width="6.25" height="6.25" />
                <rect x="81.25" y="18.75" width="6.25" height="6.25" />
                <rect x="87.5" y="18.75" width="6.25" height="6.25" />
                <rect x="93.75" y="18.75" width="6.25" height="6.25" />
                <rect x="100.0" y="18.75" width="6.25" height="6.25" />
                <rect x="106.25" y="18.75" width="6.25" height="6.25" />
                <rect x="112.5" y="18.75" width="6.25" height="6.25" />
                <rect x="118.75" y="18.75" width="6.25" height="6.25" />
                <rect x="125.0" y="18.75" width="6.25" height="6.25" />
                <rect x="131.25" y="18.75" width="6.25" height="6.25" />
                <rect x="137.5" y="18.75" width="6.25" height="6.25" />
                <rect x="143.75" y="18.75" width="6.25" height="6.25" />
                <rect x="150.0" y="18.75" width="6.25" height="6.25" />
                <rect x="156.25" y="18.75" width="6.25" height="6.25" />
                <rect x="37.5" y="25.0" width="6.25" height="6.25" />
                <rect x="43.75" y="25.0" width="6.25" height="6.25" />
                <rect x="50.0" y="25.0" width="6.25" height="6.25" />
                <rect x="56.25" y="25.0" width="6.25" height="6.25" />
                <rect x="62.5" y="25.0" width="6.25" height="6.25" />
                <rect x="68.75" y="25.0" width="6.25" height="6.25" />
                <rect x="75.0" y="25.0" width="6.25" height="6.25" />
                <rect x="81.25" y="25.0" width="6.25" height="6.25" />
                <rect x="87.5" y="25.0" width="6.25" height="6.25" />
                <rect x="93.75" y="25.0" width="6.25" height="6.25" />
                <rect x="100.0" y="25.0" width="6.25" height="6.25" />
                <rect x="106.25" y="25.0" width="6.25" height="6.25" />
                <rect x="112.5" y="25.0" width="6.25" height="6.25" />
                <rect x="118.75" y="25.0" width="6.25" height="6.25" />
                <rect x="125.0" y="25.0" width="6.25" height="6.25" />
                <rect x="131.25" y="25.0" width="6.25" height="6.25" />
                <rect x="137.5" y="25.0" width="6.25" height="6.25" />
                <rect x="143.75" y="25.0" width="6.25" height="6.25" />
                <rect x="150.0" y="25.0" width="6.25" height="6.25" />
                <rect x="156.25" y="25.0" width="6.25" height="6.25" />
                <rect x="37.5" y="31.25" width="6.25" height="6.25" />
                <rect x="43.75" y="31.25" width="6.25" height="6.25" />
                <rect x="50.0" y="31.25" width="6.25" height="6.25" />
                <rect x="56.25" y="31.25" width="6.25" height="6.25" />
                <rect x="62.5" y="31.25" width="6.25" height="6.25" />
                <rect x="68.75" y="31.25" width="6.25" height="6.25" />
                <rect x="75.0" y="31.25" width="6.25" height="6.25" />
                <rect x="81.25" y="31.25" width="6.25" height="6.25" />
                <rect x="87.5" y="31.25" width="6.25" height="6.25" />
                <rect x="93.75" y="31.25" width="6.25" height="6.25" />
                <rect x="100.0" y="31.25" width="6.25" height="6.25" />
                <rect x="106.25" y="31.25" width="6.25" height="6.25" />
                <rect x="112.5" y="31.25" width="6.25" height="6.25" />
                <rect x="118.75" y="31.25" width="6.25" height="6.25" />
                <rect x="125.0" y="31.25" width="6.25" height="6.25" />
                <rect x="131.25" y="31.25" width="6.25" height="6.25" />
                <rect x="137.5" y="31.25" width="6.25" height="6.25" />
                <rect x="143.75" y="31.25" width="6.25" height="6.25" />
                <rect x="150.0" y="31.25" width="6.25" height="6.25" />
                <rect x="156.25" y="31.25" width="6.25" height="6.25" />
                <rect x="37.5" y="37.5" width="6.25" height="6.25" />
                <rect x="43.75" y="37.5" width="6.25" height="6.25" />
                <rect x="50.0" y="37.5" width="6.25" height="6.25" />
                <rect x="56.25" y="37.5" width="6.25" height="6.25" />
                <rect x="62.5" y="37.5" width="6.25" height="6.25" />
                <rect x="68.75" y="37.5" width="6.25" height="6.25" />
                <rect x="75.0" y="37.5" width="6.25" height="6.25" />
                <rect x="81.25" y="37.5" width="6.25" height="6.25" />
                <rect x="87.5" y="37.5" width="6.25" height="6.25" />
                <rect x="93.75" y="37.5" width="6.25" height="6.25" />
                <rect x="100.0" y="37.5" width="6.25" height="6.25" />
                <rect x="106.25" y="37.5" width="6.25" height="6.25" />
                <rect x="112.5" y="37.5" width="6.25" height="6.25" />
                <rect x="118.75" y="37.5" width="6.25" height="6.25" />
                <rect x="125.0" y="37.5" width="6.25" height="6.25" />
                <rect x="131.25" y="37.5" width="6.25" height="6.25" />
                <rect x="137.5" y="37.5" width="6.25" height="6.25" />
                <rect x="143.75" y="37.5" width="6.25" height="6.25" />
                <rect x="150.0" y="37.5" width="6.25" height="6.25" />
                <rect x="156.25" y="37.5" width="6.25" height="6.25" />
                <rect x="37.5" y="43.75" width="6.25" height="6.25" />
                <rect x="43.75" y="43.75" width="6.25" height="6.25" />
                <rect x="50.0" y="43.75" width="6.25" height="6.25" />
                <rect x="56.25" y="43.75" width="6.25" height="6.25" />
                <rect x="62.5" y="43.75" width="6.25" height="6.25" />
                <rect x="68.75" y="43.75" width="6.25" height="6.25" />
                <rect x="75.0" y="43.75" width="6.25" height="6.25" />
                <rect x="81.25" y="43.75" width="6.25" height="6.25" />
                <rect x="87.5" y="43.75" width="6.25" height="6.25" />
                <rect x="93.75" y="43.75" width="6.25" height="6.25" />
                <rect x="100.0" y="43.75" width="6.25" height="6.25" />
                <rect x="106.25" y="43.75" width="6.25" height="6.25" />
                <rect x="112.5" y="43.75" width="6.25" height="6.25" />
                <rect x="118.75" y="43.75" width="6.25" height="6.25" />
                <rect x="125.0" y="43.75" width="6.25" height="6.25" />
                <rect x="131.25" y="43.75" width="6.25" height="6.25" />
                <rect x="137.5" y="43.75" width="6.25" height="6.25" />
                <rect x="143.75" y="43.75" width="6.25" height="6.25" />
                <rect x="150.0" y="43.75" width="6.25" height="6.25" />
                <rect x="156.25" y="43.75" width="6.25" height="6.25" />
                <rect x="37.5" y="50.0" width="6.25" height="6.25" />
                <rect x="43.75" y="50.0" width="6.25" height="6.25" />
                <rect x="50.0" y="50.0" width="6.25" height="6.25" />
                <rect x="56.25" y="50.0" width="6.25" height="6.25" />
                <rect x="62.5" y="50.0" width="6.25" height="6.25" />
                <rect x="68.75" y="50.0" width="6.25" height="6.25" />
                <rect x="75.0" y="50.0" width="6.25" height="6.25" />
                <rect x="81.25" y="50.0" width="6.25" height="6.25" />
                <rect x="87.5" y="50.0" width="6.25" height="6.25" />
                <rect x="93.75" y="50.0" width="6.25" height="6.25" />
                <rect x="100.0" y="50.0" width="6.25" height="6.25" />
                <rect x="106.25" y="50.0" width="6.25" height="6.25" />
                <rect x="112.5" y="50.0" width="6.25" height="6.25" />
                <rect x="118.75" y="50.0" width="6.25" height="6.25" />
                <rect x="125.0" y="50.0" width="6.25" height="6.25" />
                <rect x="131.25" y="50.0" width="6.25" height="6.25" />
                <rect x="137.5" y="50.0" width="6.25" height="6.25" />
                <rect x="143.75" y="50.0" width="6.25" height="6.25" />
                <rect x="156.25" y="50.0" width="6.25" height="6.25" />
                <rect x="37.5" y="56.25" width="6.25" height="6.25" />
                <rect x="43.75" y="56.25" width="6.25" height="6.25" />
                <rect x="50.0" y="56.25" width="6.25" height="6.25" />
                <rect x="56.25" y="56.25" width="6.25" height="6.25" />
                <rect x="62.5" y="56.25" width="6.25" height="6.25" />
                <rect x="68.75" y="56.25" width="6.25" height="6.25" />
                <rect x="75.0" y="56.25" width="6.25" height="6.25" />
                <rect x="81.25" y="56.25" width="6.25" height="6.25" />
                <rect x="87.5" y="56.25" width="6.25" height="6.25" />
                <rect x="93.75" y="56.25" width="6.25" height="6.25" />
                <rect x="100.0" y="56.25" width="6.25" height="6.25" />
                <rect x="106.25" y="56.25" width="6.25" height="6.25" />
                <rect x="112.5" y="56.25" width="6.25" height="6.25" />
                <rect x="118.75" y="56.25" width="6.25" height="6.25" />
                <rect x="125.0" y="56.25" width="6.25" height="6.25" />
                <rect x="131.25" y="56.25" width="6.25" height="6.25" />
                <rect x="137.5" y="56.25" width="6.25" height="6.25" />
                <rect x="143.75" y="56.25" width="6.25" height="6.25" />
                <rect x="150.0" y="56.25" width="6.25" height="6.25" />
                <rect x="156.25" y="56.25" width="6.25" height="6.25" />
                <rect x="37.5" y="62.5" width="6.25" height="6.25" />
                <rect x="43.75" y="62.5" width="6.25" height="6.25" />
                <rect x="50.0" y="62.5" width="6.25" height="6.25" />
                <rect x="56.25" y="62.5" width="6.25" height="6.25" />
                <rect x="62.5" y="62.5" width="6.25" height="6.25" />
                <rect x="68.75" y="62.5" width="6.25" height="6.25" />
                <rect x="75.0" y="62.5" width="6.25" height="6.25" />
                <rect x="81.25" y="62.5" width="6.25" height="6.25" />
                <rect x="87.5" y="62.5" width="6.25" height="6.25" />
                <rect x="93.75" y="62.5" width="6.25" height="6.25" />
                <rect x="100.0" y="62.5" width="6.25" height="6.25" />
                <rect x="106.25" y="62.5" width="6.25" height="6.25" />
                <rect x="112.5" y="62.5" width="6.25" height="6.25" />
                <rect x="118.75" y="62.5" width="6.25" height="6.25" />
                <rect x="125.0" y="62.5" width="6.25" height="6.25" />
                <rect x="131.25" y="62.5" width="6.25" height="6.25" />
                <rect x="137.5" y="62.5" width="6.25" height="6.25" />
                <rect x="143.75" y="62.5" width="6.25" height="6.25" />
                <rect x="150.0" y="62.5" width="6.25" height="6.25" />
                <rect x="156.25" y="62.5" width="6.25" height="6.25" />
                <rect x="37.5" y="68.75" width="6.25" height="6.25" />
                <rect x="43.75" y="68.75" width="6.25" height="6.25" />
                <rect x="50.0" y="68.75" width="6.25" height="6.25" />
                <rect x="56.25" y="68.75" width="6.25" height="6.25" />
                <rect x="62.5" y="68.75" width="6.25" height="6.25" />
                <rect x="68.75" y="68.75" width="6.25" height="6.25" />
                <rect x="75.0" y="68.75" width="6.25" height="6.25" />
                <rect x="81.25" y="68.75" width="6.25" height="6.25" />
                <rect x="87.5" y="68.75" width="6.25" height="6.25" />
                <rect x="93.75" y="68.75" width="6.25" height="6.25" />
                <rect x="100.0" y="68.75" width="6.25" height="6.25" />
                <rect x="106.25" y="68.75" width="6.25" height="6.25" />
                <rect x="112.5" y="68.75" width="6.25" height="6.25" />
                <rect x="118.75" y="68.75" width="6.25" height="6.25" />
                <rect x="125.0" y="68.75" width="6.25" height="6.25" />
                <rect x="131.25" y="68.75" width="6.25" height="6.25" />
                <rect x="137.5" y="68.75" width="6.25" height="6.25" />
                <rect x="143.75" y="68.75" width="6.25" height="6.25" />
                <rect x="150.0" y="68.75" width="6.25" height="6.25" />
                <rect x="156.25" y="68.75" width="6.25" height="6.25" />
                <rect x="37.5" y="75.0" width="6.25" height="6.25" />
                <rect x="43.75" y="75.0" width="6.25" height="6.25" />
                <rect x="50.0" y="75.0" width="6.25" height="6.25" />
                <rect x="56.25" y="75.0" width="6.25" height="6.25" />
                <rect x="62.5" y="75.0" width="6.25" height="6.25" />
                <rect x="68.75" y="75.0" width="6.25" height="6.25" />
                <rect x="75.0" y="75.0" width="6.25" height="6.25" />
                <rect x="81.25" y="75.0" width="6.25" height="6.25" />
                <rect x="87.5" y="75.0" width="6.25" height="6.25" />
                <rect x="93.75" y="75.0" width="6.25" height="6.25" />
                <rect x="100.0" y="75.0" width="6.25" height="6.25" />
                <rect x="106.25" y="75.0" width="6.25" height="6.25" />
                <rect x="112.5" y="75.0" width="6.25" height="6.25" />
                <rect x="118.75" y="75.0" width="6.25" height="6.25" />
                <rect x="125.0" y="75.0" width="6.25" height="6.25" />
                <rect x="131.25" y="75.0" width="6.25" height="6.25" />
                <rect x="137.5" y="75.0" width="6.25" height="6.25" />
                <rect x="143.75" y="75.0" width="6.25" height="6.25" />
                <rect x="150.0" y="75.0" width="6.25" height="6.25" />
                <rect x="156.25" y="75.0" width="6.25" height="6.25" />
                <rect x="37.5" y="81.25" width="6.25" height="6.25" />
                <rect x="43.75" y="81.25" width="6.25" height="6.25" />
                <rect x="50.0" y="81.25" width="6.25" height="6.25" />
                <rect x="56.25" y="81.25" width="6.25" height="6.25" />
                <rect x="62.5" y="81.25" width="6.25" height="6.25" />
                <rect x="68.75" y="81.25" width="6.25" height="6.25" />
                <rect x="75.0" y="81.25" width="6.25" height="6.25" />
                <rect x="81.25" y="81.25" width="6.25" height="6.25" />
                <rect x="87.5" y="81.25" width="6.25" height="6.25" />
                <rect x="93.75" y="81.25" width="6.25" height="6.25" />
                <rect x="100.0" y="81.25" width="6.25" height="6.25" />
                <rect x="106.25" y="81.25" width="6.25" height="6.25" />
                <rect x="112.5" y="81.25" width="6.25" height="6.25" />
                <rect x="118.75" y="81.25" width="6.25" height="6.25" />
                <rect x="125.0" y="81.25" width="6.25" height="6.25" />
                <rect x="131.25" y="81.25" width="6.25" height="6.25" />
                <rect x="137.5" y="81.25" width="6.25" height="6.25" />
                <rect x="143.75" y="81.25" width="6.25" height="6.25" />
                <rect x="156.25" y="81.25" width="6.25" height="6.25" />
                <rect x="37.5" y="87.5" width="6.25" height="6.25" />
                <rect x="43.75" y="87.5" width="6.25" height="6.25" />
                <rect x="50.0" y="87.5" width="6.25" height="6.25" />
                <rect x="56.25" y="87.5" width="6.25" height="6.25" />
                <rect x="62.5" y="87.5" width="6.25" height="6.25" />
                <rect x="68.75" y="87.5" width="6.25" height="6.25" />
                <rect x="75.0" y="87.5" width="6.25" height="6.25" />
                <rect x="81.25" y="87.5" width="6.25" height="6.25" />
                <rect x="87.5" y="87.5" width="6.25" height="6.25" />
                <rect x="93.75" y="87.5" width="6.25" height="6.25" />
                <rect x="100.0" y="87.5" width="6.25" height="6.25" />
                <rect x="106.25" y="87.5" width="6.25" height="6.25" />
                <rect x="112.5" y="87.5" width="6.25" height="6.25" />
                <rect x="118.75" y="87.5" width="6.25" height="6.25" />
                <rect x="125.0" y="87.5" width="6.25" height="6.25" />
                <rect x="131.25" y="87.5" width="6.25" height="6.25" />
                <rect x="137.5" y="87.5" width="6.25" height="6.25" />
                <rect x="143.75" y="87.5" width="6.25" height="6.25" />
                <rect x="150.0" y="87.5" width="6.25" height="6.25" />
                <rect x="156.25" y="87.5" width="6.25" height="6.25" />
                <rect x="37.5" y="93.75" width="6.25" height="6.25" />
                <rect x="43.75" y="93.75" width="6.25" height="6.25" />
                <rect x="50.0" y="93.75" width="6.25" height="6.25" />
                <rect x="56.25" y="93.75" width="6.25" height="6.25" />
                <rect x="62.5" y="93.75" width="6.25" height="6.25" />
                <rect x="68.75" y="93.75" width="6.25" height="6.25" />
                <rect x="75.0" y="93.75" width="6.25" height="6.25" />
                <rect x="81.25" y="93.75" width="6.25" height="6.25" />
                <rect x="87.5" y="93.75" width="6.25" height="6.25" />
                <rect x="93.75" y="93.75" width="6.25" height="6.25" />
                <rect x="100.0" y="93.75" width="6.25" height="6.25" />
                <rect x="106.25" y="93.75" width="6.25" height="6.25" />
                <rect x="112.5" y="93.75" width="6.25" height="6.25" />
                <rect x="118.75" y="93.75" width="6.25" height="6.25" />
                <rect x="125.0" y="93.75" width="6.25" height="6.25" />
                <rect x="131.25" y="93.75" width="6.25" height="6.25" />
                <rect x="137.5" y="93.75" width="6.25" height="6.25" />
                <rect x="143.75" y="93.75" width="6.25" height="6.25" />
                <rect x="150.0" y="93.75" width="6.25" height="6.25" />
                <rect x="37.5" y="100.0" width="6.25" height="6.25" />
                <rect x="43.75" y="100.0" width="6.25" height="6.25" />
                <rect x="50.0" y="100.0" width="6.25" height="6.25" />
                <rect x="56.25" y="100.0" width="6.25" height="6.25" />
                <rect x="62.5" y="100.0" width="6.25" height="6.25" />
                <rect x="68.75" y="100.0" width="6.25" height="6.25" />
                <rect x="75.0" y="100.0" width="6.25" height="6.25" />
                <rect x="81.25" y="100.0" width="6.25" height="6.25" />
                <rect x="87.5" y="100.0" width="6.25" height="6.25" />
                <rect x="100.0" y="100.0" width="6.25" height="6.25" />
                <rect x="106.25" y="100.0" width="6.25" height="6.25" />
                <rect x="112.5" y="100.0" width="6.25" height="6.25" />
                <rect x="118.75" y="100.0" width="6.25" height="6.25" />
                <rect x="125.0" y="100.0" width="6.25" height="6.25" />
                <rect x="137.5" y="100.0" width="6.25" height="6.25" />
                <rect x="143.75" y="100.0" width="6.25" height="6.25" />
                <rect x="150.0" y="100.0" width="6.25" height="6.25" />
                <rect x="156.25" y="100.0" width="6.25" height="6.25" />
                <rect x="37.5" y="106.25" width="6.25" height="6.25" />
                <rect x="43.75" y="106.25" width="6.25" height="6.25" />
                <rect x="50.0" y="106.25" width="6.25" height="6.25" />
                <rect x="56.25" y="106.25" width="6.25" height="6.25" />
                <rect x="62.5" y="106.25" width="6.25" height="6.25" />
                <rect x="68.75" y="106.25" width="6.25" height="6.25" />
                <rect x="75.0" y="106.25" width="6.25" height="6.25" />
                <rect x="81.25" y="106.25" width="6.25" height="6.25" />
                <rect x="87.5" y="106.25" width="6.25" height="6.25" />
                <rect x="93.75" y="106.25" width="6.25" height="6.25" />
                <rect x="100.0" y="106.25" width="6.25" height="6.25" />
                <rect x="106.25" y="106.25" width="6.25" height="6.25" />
                <rect x="112.5" y="106.25" width="6.25" height="6.25" />
                <rect x="118.75" y="106.25" width="6.25" height="6.25" />
                <rect x="125.0" y="106.25" width="6.25" height="6.25" />
                <rect x="131.25" y="106.25" width="6.25" height="6.25" />
                <rect x="143.75" y="106.25" width="6.25" height="6.25" />
                <rect x="150.0" y="106.25" width="6.25" height="6.25" />
                <rect x="37.5" y="112.5" width="6.25" height="6.25" />
                <rect x="43.75" y="112.5" width="6.25" height="6.25" />
                <rect x="50.0" y="112.5" width="6.25" height="6.25" />
                <rect x="56.25" y="112.5" width="6.25" height="6.25" />
                <rect x="62.5" y="112.5" width="6.25" height="6.25" />
                <rect x="68.75" y="112.5" width="6.25" height="6.25" />
                <rect x="75.0" y="112.5" width="6.25" height="6.25" />
                <rect x="81.25" y="112.5" width="6.25" height="6.25" />
                <rect x="87.5" y="112.5" width="6.25" height="6.25" />
                <rect x="93.75" y="112.5" width="6.25" height="6.25" />
                <rect x="100.0" y="112.5" width="6.25" height="6.25" />
                <rect x="106.25" y="112.5" width="6.25" height="6.25" />
                <rect x="112.5" y="112.5" width="6.25" height="6.25" />
                <rect x="118.75" y="112.5" width="6.25" height="6.25" />
                <rect x="125.0" y="112.5" width="6.25" height="6.25" />
                <rect x="131.25" y="112.5" width="6.25" height="6.25" />
                <rect x="137.5" y="112.5" width="6.25" height="6.25" />
                <rect x="143.75" y="112.5" width="6.25" height="6.25" />
                <rect x="37.5" y="118.75" width="6.25" height="6.25" />
                <rect x="43.75" y="118.75" width="6.25" height="6.25" />
                <rect x="50.0" y="118.75" width="6.25" height="6.25" />
                <rect x="56.25" y="118.75" width="6.25" height="6.25" />
                <rect x="62.5" y="118.75" width="6.25" height="6.25" />
                <rect x="68.75" y="118.75" width="6.25" height="6.25" />
                <rect x="75.0" y="118.75" width="6.25" height="6.25" />
                <rect x="81.25" y="118.75" width="6.25" height="6.25" />
                <rect x="93.75" y="118.75" width="6.25" height="6.25" />
                <rect x="100.0" y="118.75" width="6.25" height="6.25" />
                <rect x="106.25" y="118.75" width="6.25" height="6.25" />
                <rect x="112.5" y="118.75" width="6.25" height="6.25" />
                <rect x="118.75" y="118.75" width="6.25" height="6.25" />
                <rect x="131.25" y="118.75" width="6.25" height="6.25" />
                <rect x="137.5" y="118.75" width="6.25" height="6.25" />
                <rect x="156.25" y="118.75" width="6.25" height="6.25" />
                <rect x="162.5" y="118.75" width="6.25" height="6.25" />
                <rect x="37.5" y="125.0" width="6.25" height="6.25" />
                <rect x="43.75" y="125.0" width="6.25" height="6.25" />
                <rect x="50.0" y="125.0" width="6.25" height="6.25" />
                <rect x="56.25" y="125.0" width="6.25" height="6.25" />
                <rect x="62.5" y="125.0" width="6.25" height="6.25" />
                <rect x="68.75" y="125.0" width="6.25" height="6.25" />
                <rect x="75.0" y="125.0" width="6.25" height="6.25" />
                <rect x="87.5" y="125.0" width="6.25" height="6.25" />
                <rect x="100.0" y="125.0" width="6.25" height="6.25" />
                <rect x="112.5" y="125.0" width="6.25" height="6.25" />
                <rect x="118.75" y="125.0" width="6.25" height="6.25" />
                <rect x="125.0" y="125.0" width="6.25" height="6.25" />
                <rect x="137.5" y="125.0" width="6.25" height="6.25" />
                <rect x="143.75" y="125.0" width="6.25" height="6.25" />
                <rect x="156.25" y="125.0" width="6.25" height="6.25" />
                <rect x="37.5" y="131.25" width="6.25" height="6.25" />
                <rect x="43.75" y="131.25" width="6.25" height="6.25" />
                <rect x="50.0" y="131.25" width="6.25" height="6.25" />
                <rect x="56.25" y="131.25" width="6.25" height="6.25" />
                <rect x="62.5" y="131.25" width="6.25" height="6.25" />
                <rect x="68.75" y="131.25" width="6.25" height="6.25" />
                <rect x="81.25" y="131.25" width="6.25" height="6.25" />
                <rect x="87.5" y="131.25" width="6.25" height="6.25" />
                <rect x="112.5" y="131.25" width="6.25" height="6.25" />
                <rect x="150.0" y="131.25" width="6.25" height="6.25" />
                <rect x="37.5" y="137.5" width="6.25" height="6.25" />
                <rect x="43.75" y="137.5" width="6.25" height="6.25" />
                <rect x="50.0" y="137.5" width="6.25" height="6.25" />
                <rect x="56.25" y="137.5" width="6.25" height="6.25" />
                <rect x="62.5" y="137.5" width="6.25" height="6.25" />
                <rect x="68.75" y="137.5" width="6.25" height="6.25" />
                <rect x="75.0" y="137.5" width="6.25" height="6.25" />
                <rect x="81.25" y="137.5" width="6.25" height="6.25" />
                <rect x="87.5" y="137.5" width="6.25" height="6.25" />
                <rect x="93.75" y="137.5" width="6.25" height="6.25" />
                <rect x="100.0" y="137.5" width="6.25" height="6.25" />
                <rect x="112.5" y="137.5" width="6.25" height="6.25" />
                <rect x="125.0" y="137.5" width="6.25" height="6.25" />
                <rect x="131.25" y="137.5" width="6.25" height="6.25" />
                <rect x="137.5" y="137.5" width="6.25" height="6.25" />
                <rect x="37.5" y="143.75" width="6.25" height="6.25" />
                <rect x="43.75" y="143.75" width="6.25" height="6.25" />
                <rect x="50.0" y="143.75" width="6.25" height="6.25" />
                <rect x="56.25" y="143.75" width="6.25" height="6.25" />
                <rect x="62.5" y="143.75" width="6.25" height="6.25" />
                <rect x="68.75" y="143.75" width="6.25" height="6.25" />
                <rect x="75.0" y="143.75" width="6.25" height="6.25" />
                <rect x="93.75" y="143.75" width="6.25" height="6.25" />
                <rect x="100.0" y="143.75" width="6.25" height="6.25" />
                <rect x="106.25" y="143.75" width="6.25" height="6.25" />
                <rect x="156.25" y="143.75" width="6.25" height="6.25" />
                <rect x="37.5" y="150.0" width="6.25" height="6.25" />
                <rect x="43.75" y="150.0" width="6.25" height="6.25" />
                <rect x="50.0" y="150.0" width="6.25" height="6.25" />
                <rect x="56.25" y="150.0" width="6.25" height="6.25" />
                <rect x="62.5" y="150.0" width="6.25" height="6.25" />
                <rect x="68.75" y="150.0" width="6.25" height="6.25" />
                <rect x="75.0" y="150.0" width="6.25" height="6.25" />
                <rect x="81.25" y="150.0" width="6.25" height="6.25" />
                <rect x="93.75" y="150.0" width="6.25" height="6.25" />
                <rect x="118.75" y="150.0" width="6.25" height="6.25" />
                <rect x="131.25" y="150.0" width="6.25" height="6.25" />
                <rect x="168.75" y="150.0" width="6.25" height="6.25" />
                <rect x="37.5" y="156.25" width="6.25" height="6.25" />
                <rect x="43.75" y="156.25" width="6.25" height="6.25" />
                <rect x="50.0" y="156.25" width="6.25" height="6.25" />
                <rect x="56.25" y="156.25" width="6.25" height="6.25" />
                <rect x="62.5" y="156.25" width="6.25" height="6.25" />
                <rect x="75.0" y="156.25" width="6.25" height="6.25" />
                <rect x="81.25" y="156.25" width="6.25" height="6.25" />
                <rect x="87.5" y="156.25" width="6.25" height="6.25" />
                <rect x="93.75" y="156.25" width="6.25" height="6.25" />
                <rect x="106.25" y="156.25" width="6.25" height="6.25" />
                <rect x="125.0" y="156.25" width="6.25" height="6.25" />
                <rect x="143.75" y="156.25" width="6.25" height="6.25" />
                <rect x="37.5" y="162.5" width="6.25" height="6.25" />
                <rect x="43.75" y="162.5" width="6.25" height="6.25" />
                <rect x="50.0" y="162.5" width="6.25" height="6.25" />
                <rect x="56.25" y="162.5" width="6.25" height="6.25" />
                <rect x="62.5" y="162.5" width="6.25" height="6.25" />
                <rect x="143.75" y="162.5" width="6.25" height="6.25" />
                <rect x="162.5" y="162.5" width="6.25" height="6.25" />
                <rect x="37.5" y="168.75" width="6.25" height="6.25" />
                <rect x="43.75" y="168.75" width="6.25" height="6.25" />
                <rect x="50.0" y="168.75" width="6.25" height="6.25" />
                <rect x="56.25" y="168.75" width="6.25" height="6.25" />
                <rect x="62.5" y="168.75" width="6.25" height="6.25" />
                <rect x="112.5" y="168.75" width="6.25" height="6.25" />
                <rect x="125.0" y="168.75" width="6.25" height="6.25" />
                <rect x="131.25" y="168.75" width="6.25" height="6.25" />
                <rect x="37.5" y="175.0" width="6.25" height="6.25" />
                <rect x="43.75" y="175.0" width="6.25" height="6.25" />
                <rect x="50.0" y="175.0" width="6.25" height="6.25" />
                <rect x="56.25" y="175.0" width="6.25" height="6.25" />
                <rect x="62.5" y="175.0" width="6.25" height="6.25" />
                <rect x="75.0" y="175.0" width="6.25" height="6.25" />
                <rect x="81.25" y="175.0" width="6.25" height="6.25" />
                <rect x="93.75" y="175.0" width="6.25" height="6.25" />
                <rect x="131.25" y="175.0" width="6.25" height="6.25" />
                <rect x="150.0" y="175.0" width="6.25" height="6.25" />
                <rect x="175.0" y="175.0" width="6.25" height="6.25" />
                <rect x="37.5" y="181.25" width="6.25" height="6.25" />
                <rect x="43.75" y="181.25" width="6.25" height="6.25" />
                <rect x="50.0" y="181.25" width="6.25" height="6.25" />
                <rect x="56.25" y="181.25" width="6.25" height="6.25" />
                <rect x="62.5" y="181.25" width="6.25" height="6.25" />
                <rect x="68.75" y="181.25" width="6.25" height="6.25" />
                <rect x="81.25" y="181.25" width="6.25" height="6.25" />
                <rect x="87.5" y="181.25" width="6.25" height="6.25" />
                <rect x="93.75" y="181.25" width="6.25" height="6.25" />
                <rect x="106.25" y="181.25" width="6.25" height="6.25" />
                <rect x="112.5" y="181.25" width="6.25" height="6.25" />
                <rect x="137.5" y="181.25" width="6.25" height="6.25" />
                <rect x="156.25" y="181.25" width="6.25" height="6.25" />
                <rect x="150.0" y="187.5" width="6.25" height="6.25" />
                <rect x="168.75" y="187.5" width="6.25" height="6.25" />
            </g>
        </mask>
    </defs>
</svg>